<svg width="600" height="600" viewBox="0 0 158.75 158.75" xmlns="http://www.w3.org/2000/svg">
    <path fill="none" d="M0 0h158.75v158.75H0z"/>
    <path fill="#839496" d="M66.005 97.407c0 5.184-2.703 13.667-9.103 13.667S47.8 102.59 47.8 97.407c0-5.185 2.702-13.668 9.102-13.668s9.103 8.482 9.103 13.667zm72.9-12.527c0 7.913-.793 16.297-4.34 23.565-9.4 19-35.247 18.554-53.75 18.554-18.803 0-46.188.668-55.96-18.555-3.622-7.194-5.01-15.652-5.01-23.565 0-10.393 3.447-20.216 10.293-28.178-1.29-3.92-1.91-8.037-1.91-12.105 0-5.333 1.215-8.012 3.62-12.848 11.238 0 18.43 2.23 26.99 8.928 7.192-1.71 14.584-2.48 22-2.48 6.698 0 13.445.72 19.943 2.282 8.435-6.623 15.628-8.73 26.74-8.73 2.432 4.835 3.622 7.514 3.622 12.847 0 4.068-.645 8.112-1.91 11.956 6.822 8.037 9.674 17.934 9.674 28.327zm-15.948 12.527c0-10.89-6.623-20.49-18.232-20.49-4.688 0-9.177.844-13.89 1.49-3.696.57-7.392.793-11.187.793-3.77 0-7.466-.223-11.187-.794-4.638-.645-9.177-1.488-13.89-1.488-11.608 0-18.23 9.6-18.23 20.49 0 21.777 19.942 25.126 37.305 25.126H85.6c17.44 0 37.357-3.324 37.357-25.127zm-20.49-13.668c-6.398 0-9.102 8.482-9.102 13.667 0 5.184 2.704 13.667 9.103 13.667 6.4 0 9.103-8.483 9.103-13.667 0-5.185-2.702-13.668-9.102-13.668z"/>
</svg>
