<svg width="600" height="600" viewBox="0 0 158.75 158.75" xmlns="http://www.w3.org/2000/svg">
    <path fill="none" d="M0 0h158.75v158.75H0z"/>
    <path fill="#839496" d="M125.63 66.213c-3.765 0-7.077 1.556-9.51 3.99-8.96-6.198-21.03-10.19-34.406-10.615l6.95-31.318 22.135 4.97c0 5.42 4.415 9.836 9.836 9.836 5.52 0 9.962-4.543 9.962-9.963 0-5.42-4.416-9.963-9.962-9.963-3.865 0-7.202 2.334-8.86 5.52l-24.44-5.42c-1.23-.325-2.435.553-2.76 1.783l-7.63 34.53c-13.275.552-25.22 4.542-34.204 10.74-2.434-2.534-5.872-4.09-9.636-4.09-13.953 0-18.52 18.72-5.747 25.12-.453 1.982-.654 4.09-.654 6.198 0 21.03 23.69 38.07 52.774 38.07 29.21 0 52.9-17.04 52.9-38.07 0-2.107-.226-4.315-.778-6.298 12.522-6.424 7.905-25.02-5.972-25.02zm-78.02 26.45c0-5.52 4.417-9.963 9.963-9.963 5.42 0 9.837 4.417 9.837 9.963 0 5.42-4.417 9.837-9.837 9.837-5.52.025-9.963-4.417-9.963-9.837zm53.778 23.463c-9.134 9.135-34.907 9.135-44.04 0-1.005-.878-1.005-2.434 0-3.438.877-.878 2.433-.878 3.31 0 6.978 7.152 30.115 7.278 37.392 0 .88-.878 2.435-.878 3.313 0 1.03 1.004 1.03 2.56.025 3.438zm-.2-13.6c-5.42 0-9.838-4.418-9.838-9.838 0-5.52 4.417-9.963 9.837-9.963 5.52 0 9.963 4.417 9.963 9.963-.025 5.395-4.442 9.837-9.963 9.837z"/>
</svg>
