<svg width="600" height="600" viewBox="0 0 158.75 158.75" xmlns="http://www.w3.org/2000/svg"><path fill="none" d="M158.75 0H0v158.75h158.75z"/><path d="M136.186 123.017L108.35 95.182c6.33-9.398 9.453-21.14 7.78-33.65-2.85-21.28-20.29-38.597-41.592-41.294-31.67-4.008-58.3 22.623-54.294 54.294 2.698 21.31 20.018 38.765 41.3 41.602 12.51 1.672 24.255-1.45 33.65-7.78l27.835 27.835c3.632 3.63 9.522 3.63 13.154 0 3.63-3.638 3.63-9.545.002-13.173zm-97.948-54.81c0-16.414 13.352-29.766 29.765-29.766S97.77 51.794 97.77 68.207c0 16.413-13.354 29.766-29.767 29.766S38.238 84.624 38.238 68.206z"/></svg>