<svg width="600" height="600" viewBox="0 0 158.75 158.75" xmlns="http://www.w3.org/2000/svg">
    <path fill="none" d="M0 0h158.75v158.75H0z"/>
    <path fill="#839496" d="M120.888 37.333c-11.086-11.113-25.85-17.225-41.54-17.225-32.384 0-58.737 26.353-58.737 58.738 0 10.345 2.7 20.452 7.833 29.37l-8.335 30.426 31.142-8.176c8.572 4.683 18.23 7.144 28.072 7.144h.027c32.357 0 59.292-26.353 59.292-58.738 0-15.69-6.668-30.427-17.754-41.54zm-41.54 90.38c-8.784 0-17.383-2.353-24.87-6.798l-1.773-1.06-18.468 4.843 4.92-18.018-1.163-1.852c-4.895-7.78-7.46-16.748-7.46-25.982 0-26.908 21.906-48.816 48.84-48.816 13.045 0 25.295 5.08 34.503 14.314 9.207 9.234 14.87 21.484 14.843 34.528 0 26.935-22.463 48.842-49.37 48.842zm26.776-36.564c-1.455-.742-8.678-4.287-10.027-4.764-1.35-.502-2.33-.74-3.308.74-.98 1.483-3.784 4.764-4.657 5.77-.847.978-1.72 1.11-3.175.37-8.626-4.313-14.288-7.7-19.976-17.463-1.508-2.593 1.508-2.408 4.312-8.017.477-.98.238-1.825-.132-2.566-.37-.74-3.307-7.964-4.524-10.9-1.19-2.86-2.408-2.462-3.308-2.515-.846-.052-1.825-.052-2.804-.052-.98 0-2.567.37-3.916 1.825-1.35 1.482-5.133 5.027-5.133 12.25s5.265 14.208 5.98 15.187c.74.98 10.345 15.796 25.082 22.173 9.312 4.02 12.964 4.365 17.62 3.677 2.83-.423 8.68-3.545 9.896-6.985 1.217-3.44 1.217-6.376.846-6.985-.343-.66-1.322-1.032-2.778-1.746z"/>
</svg>
