<svg width="600" height="600" viewBox="0 0 158.75 158.75" xmlns="http://www.w3.org/2000/svg">
    <path fill="none" d="M0 0h158.75v158.75H0z"/>
    <path fill="#839496" d="M138.906 41.288l-.056 2.27c-5.226.148-8.37 2.938-10.38 7.495-4.65 10.75-19.213 44.642-28.885 66.702h-2.53L81.82 81.837c-6.044 11.83-12.703 24.18-18.45 35.918-.057.056-2.79 0-2.79-.056-8.725-20.406-17.876-40.662-26.618-61.122-2.12-4.967-9.19-13.02-14.062-12.965 0-.577-.056-1.86-.056-2.64h30.114v2.584c-3.57.205-9.82 2.474-8.054 6.362 4.074 9.243 19.27 44.696 23.362 53.68 2.79-5.524 10.752-20.312 14.007-26.562-2.586-5.264-10.9-24.906-13.542-29.76-1.803-3.312-6.713-3.61-10.378-3.665v-2.585l26.506.055v2.437c-3.608.112-7.087 1.45-5.468 4.855 3.515 7.44 5.69 12.667 8.946 19.475 1.042-2.01 6.455-12.91 8.947-18.75 1.656-3.83-.725-5.32-7.18-5.468.056-.67 0-1.916.056-2.53 8.258-.056 20.665-.056 22.897-.112v2.53c-4.185.15-8.52 2.38-10.807 5.896L88.238 72.258c1.19 2.995 11.774 26.562 12.872 29.147l22.767-52.565c-1.6-4.297-6.77-5.227-8.78-5.264V40.99l23.772.205z"/>
</svg>
