<svg width="600" height="600" viewBox="0 0 158.75 158.75" xmlns="http://www.w3.org/2000/svg">
    <path fill="none" d="M0 0h158.75v158.75H0z"/>
    <path fill="#839496" d="M136.418 50.616c-1.37-5.156-5.403-9.217-10.526-10.595-9.285-2.503-46.517-2.503-46.517-2.503s-37.232 0-46.517 2.504c-5.123 1.38-9.157 5.44-10.526 10.596-2.488 9.345-2.488 28.844-2.488 28.844s0 19.498 2.488 28.843c1.37 5.156 5.403 9.048 10.526 10.426 9.285 2.503 46.517 2.503 46.517 2.503s37.232 0 46.517-2.504c5.123-1.38 9.157-5.27 10.526-10.427 2.488-9.345 2.488-28.843 2.488-28.843s0-19.5-2.488-28.844zm-69.22 46.547V61.757l31.12 17.703z"/>
</svg>
